<svg width="50" height="50" viewBox="0 0 50 50" fill="none" xmlns="http://www.w3.org/2000/svg">
<path d="M14.5375 14.0698C14.5375 14.0698 16.4301 8.5495 18.1654 6.814C19.9008 5.07849 25.4213 6.814 25.4213 6.814C25.4213 6.814 15.7468 31 14.5375 28.5814C13.3282 26.1628 14.5375 14.0698 14.5375 14.0698Z" fill="#D9D9D9"/>
<path d="M36.3051 14.0698C36.3051 14.0698 34.4125 8.5495 32.6771 6.814C30.9418 5.07849 25.4213 6.814 25.4213 6.814C25.4213 6.814 35.0958 31 36.3051 28.5814C37.5144 26.1628 36.3051 14.0698 36.3051 14.0698Z" fill="#D9D9D9"/>
<path d="M19.637 16.4883H31.2054C31.2054 16.4883 38.1464 25.6536 35.8328 28.7087C33.5191 31.7637 17.3233 31.7637 15.0097 28.7087C12.696 25.6536 19.637 16.4883 19.637 16.4883Z" fill="#A6A6A6"/>
<rect x="20.584" y="6.03998" width="9.67442" height="2.4186" fill="#D9D9D9"/>
<path d="M18.1654 6.81397C20.5841 4.39536 30.2585 4.39533 32.677 6.81397C35.0956 9.2326 35.0956 15.2791 32.677 17.6977C30.2585 20.1163 20.584 20.1163 18.1654 17.6977C15.7468 15.2791 15.7468 9.23257 18.1654 6.81397Z" fill="#D9D9D9"/>
<path d="M18.6491 7.25373C20.9065 5.055 29.936 5.05497 32.1933 7.25373C34.4507 9.45249 34.4507 13.8499 32.1933 16.0487C29.936 18.2474 20.9065 18.2474 18.6491 16.0487C16.3918 13.8499 16.3917 9.45246 18.6491 7.25373Z" fill="#282828"/>
<path d="M27.6705 14.123L25.5953 11.5254L27.6197 9.23254H26.5604L24.7754 11.2424V11.8374L26.5821 14.123H27.6705Z" fill="#D9D9D9"/>
<path d="M23.6073 14.123H24.5505V9.23254H23.6073V14.123Z" fill="#D9D9D9"/>
<path d="M25.5375 29.0698C25.5375 29.0698 27.4301 23.5495 29.1654 21.814C30.9008 20.0785 36.4213 21.814 36.4213 21.814C36.4213 21.814 26.7468 46 25.5375 43.5814C24.3282 41.1628 25.5375 29.0698 25.5375 29.0698Z" fill="#D9D9D9"/>
<path d="M47.3051 29.0698C47.3051 29.0698 45.4125 23.5495 43.6771 21.814C41.9418 20.0785 36.4213 21.814 36.4213 21.814C36.4213 21.814 46.0958 46 47.3051 43.5814C48.5144 41.1628 47.3051 29.0698 47.3051 29.0698Z" fill="#D9D9D9"/>
<path d="M30.637 31.4883H42.2054C42.2054 31.4883 49.1464 40.6536 46.8328 43.7087C44.5191 46.7637 28.3233 46.7637 26.0097 43.7087C23.696 40.6536 30.637 31.4883 30.637 31.4883Z" fill="#A6A6A6"/>
<rect x="31.584" y="21.04" width="9.67442" height="2.4186" fill="#D9D9D9"/>
<path d="M29.1654 21.814C31.5841 19.3954 41.2585 19.3953 43.677 21.814C46.0956 24.2326 46.0956 30.2791 43.677 32.6977C41.2585 35.1163 31.584 35.1163 29.1654 32.6977C26.7468 30.2791 26.7468 24.2326 29.1654 21.814Z" fill="#D9D9D9"/>
<path d="M29.6491 22.2537C31.9065 20.055 40.936 20.055 43.1933 22.2537C45.4507 24.4525 45.4507 28.8499 43.1933 31.0487C40.936 33.2474 31.9065 33.2474 29.6491 31.0487C27.3918 28.8499 27.3917 24.4525 29.6491 22.2537Z" fill="#282828"/>
<path d="M38.6705 29.123L36.5953 26.5254L38.6197 24.2325H37.5604L35.7754 26.2424V26.8374L37.5821 29.123H38.6705Z" fill="#D9D9D9"/>
<path d="M34.6073 29.123H35.5505V24.2325H34.6073V29.123Z" fill="#D9D9D9"/>
<path d="M2.53749 29.0698C2.53749 29.0698 4.4301 23.5495 6.16545 21.814C7.90079 20.0785 13.4213 21.814 13.4213 21.814C13.4213 21.814 3.74676 46 2.53747 43.5814C1.32817 41.1628 2.53749 29.0698 2.53749 29.0698Z" fill="#D9D9D9"/>
<path d="M24.3051 29.0698C24.3051 29.0698 22.4125 23.5495 20.6771 21.814C18.9418 20.0785 13.4213 21.814 13.4213 21.814C13.4213 21.814 23.0958 46 24.3051 43.5814C25.5144 41.1628 24.3051 29.0698 24.3051 29.0698Z" fill="#D9D9D9"/>
<path d="M7.63702 31.4883H19.2054C19.2054 31.4883 26.1464 40.6536 23.8328 43.7087C21.5191 46.7637 5.32334 46.7637 3.00966 43.7087C0.695985 40.6536 7.63702 31.4883 7.63702 31.4883Z" fill="#A6A6A6"/>
<rect x="8.58399" y="21.04" width="9.67442" height="2.4186" fill="#D9D9D9"/>
<path d="M6.16542 21.814C8.58405 19.3954 18.2585 19.3953 20.677 21.814C23.0956 24.2326 23.0956 30.2791 20.677 32.6977C18.2585 35.1163 8.584 35.1163 6.1654 32.6977C3.74679 30.2791 3.74678 24.2326 6.16542 21.814Z" fill="#D9D9D9"/>
<path d="M6.64913 22.2537C8.90652 20.055 17.936 20.055 20.1933 22.2537C22.4507 24.4525 22.4507 28.8499 20.1933 31.0487C17.936 33.2474 8.90649 33.2474 6.64913 31.0487C4.39176 28.8499 4.39173 24.4525 6.64913 22.2537Z" fill="#282828"/>
<path d="M15.6705 29.123L13.5953 26.5254L15.6197 24.2325H14.5604L12.7754 26.2424V26.8374L14.5821 29.123H15.6705Z" fill="#D9D9D9"/>
<path d="M11.6073 29.123H12.5505V24.2325H11.6073V29.123Z" fill="#D9D9D9"/>
</svg>
